PathFileType	4	(X/Y/Z)	D:\TRACE\spot_10-12-23\spot_body_baseline_4-platform.trc
DataRate	CameraRate	NumFrames	NumMarkers	Units	OrigDataRate	OrigDataStartFrame	OrigNumFrames
100.00	100.00	      62	5	mm	100.00	5251	      7000
Frame#	Time	Left_Front			Right_Front			Left_Aft			Right_Aft			Post			
		X1	Y1	Z1	X2	Y2	Z2	X3	Y3	Z3	X4	Y4	Z4	X5	Y5	Z5	

5251	52.500	-780.61426	6.33651	-641.52130	791.59668	11.10217	-634.88806	-697.84485	5.64726	496.41473	719.48492	10.14743	582.32318	1.80442	743.94696	-959.41370	
5252	52.510	-780.59473	6.28882	-641.48151	791.62665	11.07914	-634.86334	-697.83917	5.62821	496.38702	719.48395	10.10128	582.32672	1.80834	743.92328	-959.39014	
5253	52.520	-780.61981	6.32174	-641.50488	791.57239	11.07374	-634.91162	-697.84174	5.63101	496.41287	719.47443	10.13128	582.32159	1.80382	743.91998	-959.39532	
5254	52.530	-780.58984	6.29954	-641.51257	791.58752	11.01466	-634.90179	-697.80151	5.61898	496.37521	719.45105	10.10199	582.30591	1.77284	743.92078	-959.37653	
5255	52.540	-780.57684	6.29189	-641.49957	791.57825	11.06297	-634.89728	-697.79865	5.57519	496.41614	718.91443	9.68865	581.87653	1.73201	743.95007	-959.42871	
5256	52.550	-780.58496	6.31141	-641.50830	791.60596	11.03634	-634.90723	-697.79144	5.62857	496.43076	718.95630	9.72302	582.01526	1.73530	743.98169	-959.39771	
5257	52.560	-780.65790	6.36288	-641.48730	791.61182	11.07503	-634.88983	-697.78076	5.64612	496.43079	719.06976	9.75876	582.07959	1.74977	744.02118	-959.44818	
5258	52.570	-780.59949	6.33052	-641.50360	791.60425	11.09961	-634.84790	-697.81653	5.60748	496.40506	719.14325	9.82561	582.05249	1.74009	743.98254	-959.46649	
5259	52.580	-780.58423	6.29861	-641.49426	791.57141	11.06670	-634.90979	-697.82172	5.58578	496.40170	719.26849	9.92482	582.18604	1.81169	743.96814	-959.43451	
5260	52.590	-780.61017	6.32285	-641.51105	791.57959	11.05934	-634.89594	-697.80011	5.59608	496.39175	719.33167	9.93999	582.25928	1.60631	743.96002	-959.47516	
5261	52.600	-780.55237	6.29224	-641.50806	791.42267	11.13549	-635.04651	-697.80847	5.63022	496.37021	719.38373	10.01096	582.31396	1.75091	743.90314	-959.47406	
5262	52.610	-780.58044	6.28834	-641.51990	791.61023	11.05202	-634.88770	-697.82214	5.60620	496.41196	719.41858	10.00145	582.31689	1.84252	743.90582	-959.44196	
5263	52.620	-780.63440	6.33588	-641.44525	791.58704	11.03472	-634.94092	-697.78473	5.59476	496.39175	719.42621	10.04380	582.36517	1.76830	743.90839	-959.44244	
5264	52.630	-780.64380	6.41171	-641.51355	791.65179	11.06963	-634.87854	-697.81128	5.58377	496.38547	719.45013	10.04063	582.36829	1.81329	743.89624	-959.45825	
5265	52.640	-780.72211	6.42668	-641.50922	791.63354	11.06208	-634.91937	-697.80359	5.61979	496.40091	719.46484	10.05239	582.36511	1.79041	743.90405	-959.43921	
5266	52.650	-780.69714	6.39610	-641.47449	791.59375	11.06567	-634.91669	-697.76892	5.60746	496.38159	719.45129	10.02592	582.39758	2.05923	743.96790	-959.40247	
5267	52.660	-780.68903	6.41416	-641.49042	791.61243	11.08809	-634.89630	-697.80670	5.59807	496.41089	719.45313	10.02869	582.39191	1.83315	743.97528	-959.42249	
5268	52.670	-780.73102	6.47097	-641.46802	791.62561	11.08344	-634.85822	-697.81201	5.62059	496.40836	719.49286	10.04279	582.42157	1.83707	744.00366	-959.43616	
5269	52.680	-780.77112	6.47008	-641.43787	791.56818	11.03764	-634.90411	-697.84338	5.63384	496.40057	719.50928	10.05863	582.44940	1.82606	743.98621	-959.42529	
5270	52.690	-780.66779	6.40680	-641.52081	791.63336	11.01326	-634.92267	-697.82855	5.63696	496.39606	719.48792	10.09443	582.47064	1.83404	743.98376	-959.44745	
5271	52.700	-780.61115	6.30500	-641.45868	791.64709	11.08725	-634.86255	-697.83228	5.64096	496.39349	719.49823	10.07611	582.43750	1.79720	743.94409	-959.43152	
5272	52.710	-780.71045	6.42375	-641.45056	791.58459	11.07439	-634.89270	-697.79193	5.62912	496.37515	719.48743	10.08147	582.45862	1.84607	743.94836	-959.40167	
5273	52.720	-780.71991	6.41616	-641.44446	791.60797	11.10245	-634.89636	-697.81976	5.63855	496.36029	719.53534	10.11241	582.45911	1.86281	743.94232	-959.42572	
5274	52.730	-780.73560	6.42259	-641.47162	791.59100	11.08816	-634.90680	-697.83148	5.62773	496.36038	719.52094	10.08590	582.48059	1.81233	743.94489	-959.45911	
5275	52.740	-780.72430	6.41620	-641.48193	791.60101	11.05881	-634.90784	-697.83551	5.59119	496.39380	719.47443	10.07953	582.45129	1.79404	743.90363	-959.43469	
5276	52.750	-780.62231	6.32992	-641.48279	791.58801	11.06165	-634.88202	-697.80933	5.61869	496.38437	719.50861	10.10255	582.46008	1.81164	743.91992	-959.42078	
5277	52.760	-780.70624	6.40820	-641.47766	791.62787	11.04664	-634.85956	-697.84290	5.60465	496.39764	719.51666	10.07309	582.47607	1.80135	743.94684	-959.41248	
5278	52.770	-780.61182	6.34659	-641.49756	791.68066	11.04063	-634.87000	-697.79626	5.60986	496.36313	719.51379	10.07449	582.44086	1.82048	743.92706	-959.43146	
5279	52.780	-780.67065	6.40426	-641.46429	791.62720	11.04954	-634.91187	-697.79999	5.62387	496.37592	719.51202	10.09961	582.46796	1.77263	743.94916	-959.42432	
5280	52.790	-780.72382	6.41859	-641.47034	791.58026	11.10356	-634.91510	-697.83734	5.63679	496.39810	719.53265	10.08297	582.46008	1.79629	743.93488	-959.38684	
5281	52.800	-780.59875	6.31026	-641.47394	791.58801	11.13441	-634.91315	-697.81268	5.60921	496.41501	719.49146	10.11668	582.45850	1.85342	743.94861	-959.43060	
5282	52.810	-780.78473	6.46457	-641.43628	791.63171	11.04415	-634.87500	-697.82379	5.60005	496.38431	719.55524	10.07864	582.47125	1.78401	743.99646	-959.42511	
5283	52.820	-780.73041	6.44870	-641.47076	791.63257	11.11290	-634.87689	-697.81299	5.59230	496.38834	719.50238	10.07218	582.46259	1.81406	743.99774	-959.34015	
5284	52.830	-780.71985	6.42395	-641.46332	791.58691	11.16387	-634.88672	-697.83624	5.58141	496.38541	719.51587	10.05782	582.46692	1.77647	744.01245	-959.37897	
5285	52.840	-780.71149	6.42937	-641.46234	791.58185	11.10821	-634.88324	-697.84802	5.59043	496.38690	719.51819	10.08476	582.44519	1.77753	743.98206	-959.35669	
5286	52.850	-780.65222	6.37446	-641.48004	791.59955	11.05978	-634.87494	-697.82166	5.62950	496.36002	719.50574	10.11272	582.45972	1.85801	743.93988	-959.33191	
5287	52.860	-780.64819	6.35064	-641.46515	791.63263	11.06899	-634.87012	-697.84619	5.64441	496.37231	719.55109	10.13126	582.44690	1.85243	743.89160	-959.34015	
5288	52.870	-780.75098	6.43675	-641.42871	791.55682	11.05597	-634.91791	-697.86151	5.68434	496.36151	719.51013	10.11502	582.45892	1.83464	743.92133	-959.35895	
5289	52.880	-780.66394	6.38112	-641.48254	791.59009	11.08728	-634.86975	-697.88910	5.61236	496.42249	719.48956	10.08247	582.44672	1.78742	743.94537	-959.41016	
5290	52.890	-780.71027	6.40356	-641.46790	791.56635	11.05680	-634.90393	-697.87701	5.63116	496.39285	719.50098	10.12541	582.46722	1.71489	743.94348	-959.47955	
5291	52.900	-780.60242	6.30067	-641.49896	791.58990	11.13795	-634.86060	-697.86340	5.59579	496.41333	719.46979	10.07493	582.46802	1.74734	744.01575	-959.49622	
5292	52.910	-780.70538	6.42877	-641.45819	791.63831	11.13222	-634.87396	-697.86218	5.60935	496.40848	719.51062	10.05012	582.46472	1.80061	744.00031	-959.48663	
5293	52.920	-780.77399	6.44016	-641.41034	791.63745	11.11619	-634.84814	-697.81647	5.62553	496.42206	719.50360	10.07884	582.46826	1.78256	743.98608	-959.41486	
5294	52.930	-780.73169	6.41641	-641.47113	791.56317	11.09547	-634.90033	-697.87579	5.61499	496.41446	719.51532	10.09572	582.46930	1.79180	743.94202	-959.43280	
5295	52.940	-780.61157	6.30894	-641.50256	791.56079	11.06738	-634.88635	-697.84570	5.60281	496.40366	719.52570	10.10411	582.44281	1.80294	743.93854	-959.41327	
5296	52.950	-780.66534	6.38568	-641.48016	791.60840	11.03003	-634.89954	-697.80127	5.63093	496.39651	719.48804	10.13604	582.45325	1.87240	743.91827	-959.34143	
5297	52.960	-780.72784	6.43281	-641.46588	791.55573	11.08259	-634.92065	-697.65808	5.50019	496.46469	719.49976	10.11539	582.45740	1.73852	743.93323	-959.39960	
5298	52.970	-780.67432	6.37856	-641.51215	791.63666	11.07166	-634.88843	-697.67773	5.57542	496.40424	719.53503	10.10239	582.47559	1.84715	743.91168	-959.36639	
5299	52.980	-780.71655	6.43926	-641.49762	791.63892	11.09973	-634.86798	-697.74756	5.57595	496.40231	719.49823	10.10263	582.46863	1.84961	743.97614	-959.37402	
5300	52.990	-780.68890	6.35554	-641.46985	791.60742	11.12727	-634.87024	-697.77582	5.56436	496.41217	719.49292	10.08101	582.48401	1.80701	743.97485	-959.44568	
5301	53.000	-780.74548	6.44454	-641.45819	791.60181	11.13008	-634.87634	-697.75665	5.53111	496.42838	719.51453	10.06241	582.49615	1.77707	744.02478	-959.43817	
5302	53.010	-780.56738	6.31492	-641.49475	791.58215	11.09868	-634.85925	-697.79034	5.55352	496.40375	719.50378	10.03413	582.47314	1.79431	744.00623	-959.43927	
5303	53.020	-780.69354	6.40587	-641.50262	791.61621	11.10521	-634.86688	-697.80792	5.58547	496.39874	719.53967	10.08878	582.48840	1.75591	743.96832	-959.43762	
5304	53.030	-780.72546	6.43945	-641.44995	791.61853	11.08295	-634.90625	-697.78772	5.56689	496.43338	719.57153	10.08973	582.48419	1.84383	743.95569	-959.43512	
5305	53.040	-780.77802	6.43323	-641.48657	791.65643	11.08773	-634.87347	-697.77466	5.60893	496.38864	719.52747	10.06990	582.48059	1.80896	743.92474	-959.40259	
5306	53.050	-780.69843	6.37082	-641.45789	791.59558	11.04541	-634.89911	-697.76007	5.55135	496.44461	719.51886	10.08413	582.47357	1.73481	743.93292	-959.41156	
5307	53.060	-780.69727	6.38637	-641.47656	791.59668	11.06690	-634.92249	-697.76868	5.60007	496.36328	719.53351	10.08223	582.46918	1.81369	743.92621	-959.44006	
5308	53.070	-780.66705	6.38781	-641.51056	791.60022	11.11716	-634.88318	-697.78058	5.55589	496.40680	719.53436	10.08400	582.46948	1.81839	743.97021	-959.42920	
5309	53.080	-780.70782	6.41237	-641.45551	791.59296	11.08942	-634.91284	-697.80145	5.55004	496.39572	719.49762	10.06341	582.50171	1.82241	743.93384	-959.47699	
5310	53.090	-780.60736	6.31675	-641.48077	791.66357	11.14720	-634.83997	-697.77332	5.55866	496.39664	719.52301	10.12360	582.51068	1.81982	743.94470	-959.46008	
5311	53.100	-780.73370	6.42208	-641.41669	791.61206	11.12106	-634.90210	-697.75739	5.55845	496.42484	719.51910	10.07271	582.46606	1.78068	743.98383	-959.49176	
5312	53.110	-780.70282	6.42381	-641.44135	791.55597	11.10957	-634.87878	-697.77173	5.55277	496.43054	719.52936	10.06340	582.47064	1.80694	744.01715	-959.42273	
